# xmcd CD database file
#
# Track frame offsets:
#	187
#	33017
#	60480
#	89782
#	115940
#	153250
#	181340
#	206135
#	238970
#
# Disc length: 3663 seconds
#
# Revision: 3
# Processed by: cddbd v1.5.2PL0 Copyright (c) Steve Scherf et al.
# Submitted via: CDex 1.70beta2
#
DISCID=770e4d09
DTITLE=Bill Holman - A View From The Side
DYEAR=1995
DGENRE=Jazz
TTITLE0=No Joy In Mudville
TTITLE1=Any Dude'll Do
TTITLE2=But Beautiful
TTITLE3=Petaluma Lu
TTITLE4=I Didn't Ask
TTITLE5=Make My Day
TTITLE6=The Peacocks
TTITLE7=A View From The Side
TTITLE8=Tennessee Waltz
EXTD=YEAR: 1995
EXTT0=
EXTT1=
EXTT2=
EXTT3=
EXTT4=
EXTT5=
EXTT6=
EXTT7=
EXTT8=
PLAYORDER=
